Coordinates
version=1
nRows=13
nColumns=38
inDegrees=no

Units are S.I. units (second, meters, Newtons, ...)
If the header above contains a line with 'inDegrees', this indicates whether rotational values are in degrees (yes) or radians (no).

endheader
time	pelvis_tilt	pelvis_list	pelvis_rotation	pelvis_tx	pelvis_ty	pelvis_tz	hip_flexion_r	hip_adduction_r	hip_rotation_r	knee_angle_r	ankle_angle_r	subtalar_angle_r	mtp_angle_r	hip_flexion_l	hip_adduction_l	hip_rotation_l	knee_angle_l	ankle_angle_l	subtalar_angle_l	mtp_angle_l	lumbar_extension	lumbar_bending	lumbar_rotation	arm_flex_r	arm_add_r	arm_rot_r	elbow_flex_r	pro_sup_r	wrist_flex_r	wrist_dev_r	arm_flex_l	arm_add_l	arm_rot_l	elbow_flex_l	pro_sup_l	wrist_flex_l	wrist_dev_l
0.54	-1.88505	1.522	0.337396	0.927444	1.09976	1.05852	0.380122	-0.014503	-0.1521	0.535923	-0.17523	0	0	-0.0537744	-0.0385033	-0.290906	0.218559	-0.0621738	0	0	-0.307298	0.015348	0.0109559	-0.134091	-0.390731	0.346073	0.680793	0.998619	0	0	0.122697	-0.58632	0.225146	0.687949	1.21377	0	0
0.55	-1.94438	1.52174	0.3996	0.926478	1.08847	1.05789	0.376413	-0.0130039	-0.151849	0.462899	-0.182373	0	0	-0.0660751	-0.0391948	-0.295054	0.2117	-0.0627777	0	0	-0.305898	0.0157434	0.00897355	-0.133249	-0.38985	0.345163	0.679148	0.999906	0	0	0.133517	-0.588367	0.229107	0.685337	1.21183	0	0
0.56	-1.82927	1.51526	0.287686	0.926077	1.07763	1.05901	0.371474	-0.014688	-0.19121	0.420103	-0.201912	0	0	-0.085265	-0.048781	-0.29711	0.202695	-0.0663945	0	0	-0.315443	0.0269708	0.00987512	-0.125268	-0.391885	0.348669	0.672526	0.999729	0	0	0.151496	-0.584841	0.235353	0.675738	1.21108	0	0
0.57	-1.87047	1.5172	0.332776	0.924921	1.06603	1.05785	0.367082	-0.0155771	-0.197678	0.3452	-0.223124	0	0	-0.0989955	-0.0481585	-0.299671	0.196571	-0.0655872	0	0	-0.314826	0.0254747	0.00623952	-0.125393	-0.390522	0.348212	0.67253	0.998717	0	0	0.160573	-0.589277	0.240804	0.674854	1.20983	0	0
0.58	-1.93421	1.51951	0.39985	0.923636	1.05429	1.05639	0.364499	-0.0174357	-0.204043	0.274532	-0.246041	0	0	-0.111811	-0.0467246	-0.302666	0.191155	-0.0629956	0	0	-0.312857	0.0228426	0.0026409	-0.125789	-0.388651	0.347888	0.671981	0.997778	0	0	0.16835	-0.594801	0.248014	0.67476	1.20694	0	0
0.59	-2.05461	1.52204	0.522917	0.922237	1.04255	1.05449	0.364184	-0.0222165	-0.200517	0.209267	-0.266524	0	0	-0.121813	-0.0439864	-0.307756	0.187501	-0.0603118	0	0	-0.30832	0.0181367	-0.000674128	-0.126332	-0.386042	0.348685	0.670299	0.997472	0	0	0.175256	-0.601393	0.25684	0.675422	1.2035	0	0
0.6	-2.18663	1.52466	0.657458	0.920805	1.03073	1.05245	0.363329	-0.0275091	-0.195293	0.147152	-0.283161	0	0	-0.132141	-0.0406262	-0.313296	0.184637	-0.0581945	0	0	-0.304035	0.0127801	-0.00411225	-0.126758	-0.383298	0.35011	0.668452	0.996988	0	0	0.181841	-0.60818	0.266369	0.676082	1.2001	0	0
0.61	-2.33526	1.52689	0.807945	0.919255	1.01867	1.05031	0.361615	-0.0333273	-0.187082	0.0895131	-0.295002	0	0	-0.143073	-0.0363531	-0.316226	0.181922	-0.0564529	0	0	-0.299775	0.00683251	-0.00704358	-0.127401	-0.380204	0.351792	0.66624	0.996004	0	0	0.187468	-0.615032	0.27578	0.677186	1.19744	0	0
0.62	-2.49769	1.52846	0.97213	0.917656	1.00642	1.04808	0.35919	-0.0396979	-0.178365	0.0368697	-0.302374	0	0	-0.154071	-0.0318638	-0.317979	0.18011	-0.0548502	0	0	-0.295733	0.000742205	-0.00981674	-0.128318	-0.376842	0.353685	0.664048	0.994282	0	0	0.191958	-0.621659	0.28418	0.679017	1.19536	0	0
0.63	-2.83149	1.52761	1.308	0.916811	0.994065	1.04488	0.351988	-0.0733128	-0.120503	0	-0.309459	0	0	-0.160168	-0.0195559	-0.318784	0.180378	-0.0537043	0	0	-0.287206	-0.0101172	-0.0137919	-0.133573	-0.374814	0.352915	0.666608	0.992804	0	0	0.194261	-0.626154	0.288315	0.681493	1.19571	0	0
0.64	-3.01025	1.52506	1.48588	0.914714	0.981547	1.04248	0.356997	-0.0793558	-0.119951	0	-0.308371	0	0	-0.168838	-0.0143228	-0.322303	0.182168	-0.0513419	0	0	-0.282202	-0.0181347	-0.0144883	-0.134202	-0.36941	0.355408	0.663366	0.98825	0	0	0.196703	-0.633089	0.295666	0.683491	1.19555	0	0
0.65	-3.10467	1.52372	1.58244	0.91284	0.968823	1.04032	0.360775	-0.0822707	-0.135873	0	-0.293068	0	0	-0.178432	-0.0134342	-0.323508	0.186899	-0.048031	0	0	-0.280117	-0.0218432	-0.0175699	-0.133914	-0.365894	0.362127	0.661284	0.977694	0	0	0.197952	-0.639525	0.302234	0.686084	1.1928	0	0
0.66	3.11248	1.522	1.65018	0.910879	0.956042	1.03826	0.364815	-0.0834892	-0.14548	0	-0.278496	0	0	-0.186558	-0.0139951	-0.323648	0.194014	-0.0452336	0	0	-0.278162	-0.0243034	-0.0200083	-0.133864	-0.362614	0.367383	0.659898	0.966247	0	0	0.19796	-0.644076	0.304228	0.687966	1.19302	0	0
